# xmcd
#
# Track frame offsets: 
#        150
#        31826
#        65868
#        94815
#        124876
#        164286
#
# Disc length: 2796 seconds
#
# Revision: 0
# Processed by: cddbd v1.5.2PL0 Copyright (c) Steve Scherf et al.
# Submitted via: ExactAudioCopy v1.0b3
#
DISCID=4e0aea06
DTITLE=Medwyn Goodall - Great Spirit - The Lost Tracks
DYEAR=2018
DGENRE=New Age
TTITLE0=Discovery
TTITLE1=Eagle Dream
TTITLE2=Deep Forest
TTITLE3=Sky Warrior
TTITLE4=Where Buffalo Roam
TTITLE5=Wind Spirit
EXTD=
EXTT0=
EXTT1=
EXTT2=
EXTT3=
EXTT4=
EXTT5=
PLAYORDER=
